<svg width="1000" height="1000" viewBox="0 0 200 200" fill="none" xmlns="http://www.w3.org/2000/svg">

  <!-- Outer Ensō stroke -->
  <path d="
      M100 20
      C55 25, 25 60, 25 105
      C25 150, 60 185, 105 185
      C145 185, 175 160, 180 120
      C185 85, 165 50, 135 35
    " stroke="#2C5F4A" stroke-width="6" stroke-linecap="round" stroke-dasharray="200 40" opacity="0.55" fill="none"></path>

  <!-- Inner Ensō echo -->
  <path d="
      M100 35
      C65 40, 40 72, 40 105
      C40 137, 68 165, 102 167
      C135 168, 160 147, 165 118
      C170 95, 158 70, 135 55
    " stroke="#6B9080" stroke-width="3" stroke-linecap="round" stroke-dasharray="150 30" opacity="0.35" fill="none"></path>

  <!-- Brain outline -->
  <path d="
      M60 120
      C60 92, 95 78, 110 98
      C125 78, 160 92, 160 120
      C160 145, 125 160, 110 140
      C95 160, 60 145, 60 120
    " stroke="#A4B0A8" stroke-width="2.2" fill="none"></path>

  <!-- Amygdala (calm, smaller, reduced activation) -->
  <circle cx="100" cy="130" r="7" fill="#D4A574" opacity="0.7"></circle>

  <!-- Frontal lobe (strong) -->
  <circle cx="138" cy="100" r="14" fill="#2C5F4A"></circle>

  <!-- Calm regulation waves (gentle, harmonious) -->
  <path d="M132 105 Q138 103, 144 105" stroke="#6B9080" stroke-width="2.2" stroke-linecap="round" fill="none" opacity="0.6"></path>

  <path d="M131 111 Q138 109, 145 111" stroke="#6B9080" stroke-width="2.2" stroke-linecap="round" fill="none" opacity="0.4"></path>

</svg>
