<svg width="1000" height="1000" viewBox="0 0 200 200" fill="none" xmlns="http://www.w3.org/2000/svg">

  <!-- Mjuk väg under bilen -->
  <path d="
      M40 150
      Q100 140, 160 150" stroke="#2C5F4A" stroke-width="3" stroke-linecap="round" fill="none"></path>

  <!-- Bilkropp (front) -->
  <path d="
      M60 120
      Q65 100, 80 95
      L120 95
      Q135 100, 140 120
      L140 135
      L60 135
      Z" stroke="#A4B0A8" stroke-width="2.2" fill="white"></path>

  <!-- Vindruta -->
  <path d="
      M82 100
      H118
      Q125 102, 128 110
      H72
      Q75 102, 82 100
    " stroke="#A4B0A8" stroke-width="2.2" fill="#F5F1E8"></path>

  <!-- Fokuspunkt i vindrutan -->
  <circle cx="100" cy="110" r="4" fill="#2C5F4A"></circle>

  <!-- Strålkastare -->
  <circle cx="75" cy="130" r="4" fill="#6B9080" opacity="0.85"></circle>
  <circle cx="125" cy="130" r="4" fill="#6B9080" opacity="0.85"></circle>

  <!-- FRONT-VIEW HJUL -->
  <!-- Vänster hjul -->
  <circle cx="78" cy="135" r="9" fill="#6B9080" opacity="0.9"></circle>

  <!-- Höger hjul -->
  <circle cx="122" cy="135" r="9" fill="#6B9080" opacity="0.9"></circle>

  <!-- Lugna skyddsbågar över bilen -->
  <path d="M65 90 Q100 75, 135 90" stroke="#6B9080" stroke-width="2.2" stroke-linecap="round" fill="none" opacity="0.6"></path>

  <path d="M70 82 Q100 68, 130 82" stroke="#6B9080" stroke-width="2.2" stroke-linecap="round" fill="none" opacity="0.4"></path>

</svg>
