<svg width="1000" height="1000" viewBox="0 0 200 200" fill="none" xmlns="http://www.w3.org/2000/svg">

  <!-- Brain outline -->
  <path d="
      M55 120
      C55 85, 95 70, 110 95
      C125 70, 165 85, 165 120
      C165 150, 125 165, 110 142
      C95 165, 55 150, 55 120
    " stroke="#A4B0A8" stroke-width="2.2" fill="none"></path>

  <!-- Irregular "explosion zone" behind amygdala (different color) -->
  <path d="
      M80 140
      C78 132, 82 122, 90 118
      C96 114, 104 114, 111 117
      C118 120, 123 126, 124 134
      C125 142, 120 150, 112 153
      C104 156, 94 155, 87 150
      C82 147, 80 144, 80 140
    " fill="#BB7A52" opacity="0.85"></path>

  <!-- Small irregular fragments around (emotional "debris") -->
  <path d="M76 128 L72 132 L74 137 L79 134 Z" fill="#BB7A52" opacity="0.8"></path>
  <path d="M120 142 L124 147 L121 151 L116 148 Z" fill="#BB7A52" opacity="0.8"></path>

  <!-- Amygdala core (clean circle, not star/sun) -->
  <circle cx="98" cy="136" r="9" fill="#D4A574"></circle>

  <!-- Frontal lobe (reduced influence) -->
  <circle cx="138" cy="100" r="12" fill="#2C5F4A"></circle>

  <!-- Svag, kort regleringsvåg från frontal lobe -->
  <path d="M133 105 Q137 103, 143 105" stroke="#6B9080" stroke-width="2" stroke-linecap="round" opacity="0.4" fill="none"></path>

</svg>
