<svg width="2000" height="60" viewBox="0 0 2000 60" fill="none" xmlns="http://www.w3.org/2000/svg" preserveAspectRatio="none">
  <!-- Primary wave - Soft Sage -->
  <path d="M 0 20 Q 100 10, 200 20 T 400 20 T 600 20 T 800 20 T 1000 20 T 1200 20 T 1400 20 T 1600 20 T 1800 20 T 2000 20" 
        stroke="#6B9080" 
        stroke-width="2.5" 
        stroke-linecap="round" 
        fill="none" 
        opacity="0.6"/>
  
  <!-- Secondary wave - slightly offset and lighter -->
  <path d="M 0 30 Q 100 20, 200 30 T 400 30 T 600 30 T 800 30 T 1000 30 T 1200 30 T 1400 30 T 1600 30 T 1800 30 T 2000 30" 
        stroke="#6B9080" 
        stroke-width="2" 
        stroke-linecap="round" 
        fill="none" 
        opacity="0.4"/>
  
  <!-- Tertiary wave - most subtle -->
  <path d="M 0 40 Q 100 30, 200 40 T 400 40 T 600 40 T 800 40 T 1000 40 T 1200 40 T 1400 40 T 1600 40 T 1800 40 T 2000 40" 
        stroke="#A4B0A8" 
        stroke-width="1.5" 
        stroke-linecap="round" 
        fill="none" 
        opacity="0.25"/>
</svg>
